<svg width="173" height="204" viewBox="0 0 173 204" fill="none" xmlns="http://www.w3.org/2000/svg">
<path fill-rule="evenodd" clip-rule="evenodd" d="M89.0322 36.0325C92.7297 37.9016 96.3627 38.8047 98.0676 38.436C102.344 37.5116 102.737 24.3914 99.4282 19.219C96.1201 14.0467 79.1107 11.7922 78.2537 22.0404C77.9562 25.5972 79.7364 28.7714 82.3674 31.3614L77.6502 49.8028H91.3531L89.0322 36.0325Z" fill="#B28B67"/>
<path fill-rule="evenodd" clip-rule="evenodd" d="M81.3146 33.6684C79.5948 27.251 74.6955 22.8764 75.4434 20.0081C76.1919 17.1398 79.4321 16.4407 79.4321 16.4407C79.4321 16.4407 81.1085 10.7541 90.2432 11.6033C99.3779 12.4524 104.953 15.6342 102.545 22.6353C100.332 22.6353 97.6599 21.964 93.9658 23.1142C92.2073 23.6616 91.4502 26.5095 91.4502 26.5095H89.7807C89.7807 26.5095 87.3502 23.1299 84.9875 24.0256C82.6249 24.9214 83.9136 28.3774 83.9136 28.3774L83.0908 33.6684H81.3146Z" fill="#191847"/>
<path fill-rule="evenodd" clip-rule="evenodd" d="M52.8835 109.662H96.9925L102.772 169.042H37.1122L52.8835 109.662Z" fill="#C5CFD6"/>
<path fill-rule="evenodd" clip-rule="evenodd" d="M52.8835 109.662H66.4497L74.5693 169.042H37.1122L52.8835 109.662Z" fill="black" fill-opacity="0.1"/>
<path fill-rule="evenodd" clip-rule="evenodd" d="M121.227 121.426C116.271 130.243 108.526 151.646 108.526 151.646L115.101 154.166C115.101 154.166 131.785 131.667 141.981 116.288C141.506 119.75 141.022 123.648 140.574 127.746C139.512 137.452 140.574 158.424 141.145 164.482C141.504 168.289 147.672 167.492 148.248 164.472C148.346 163.961 148.743 162.165 149.336 159.486C152.244 146.35 159.854 111.969 159.868 103.551C159.873 100.164 151.983 97.1203 147.28 99.4888C144.05 96.5978 137.936 94.9318 134.424 99.7072C132.191 102.743 126.886 111.362 121.227 121.426Z" fill="#B28B67"/>
<path fill-rule="evenodd" clip-rule="evenodd" d="M108.996 143.722L131.564 98.8811C136.971 91.5869 152.129 100.366 150.286 104.596C146.1 114.201 124.811 145.297 123.564 148.159L108.996 143.722Z" fill="#1F28CF"/>
<path fill-rule="evenodd" clip-rule="evenodd" d="M109.432 149.018C109.036 148.566 108.271 148.459 107.759 148.82C106.826 149.478 105.483 150.493 104.998 151.197C104.227 152.318 103.191 154.686 103.191 154.686C104.742 155.437 131.079 168.191 131.079 168.191C131.079 168.191 134.241 165.703 132.065 164.329C129.888 162.954 128.472 162.01 128.472 162.01L118.846 150.887C118.657 150.668 118.29 150.624 118.036 150.789L116.036 152.08C116.036 152.08 113.283 151.879 111.928 151.222C111.103 150.823 110.094 149.776 109.432 149.018Z" fill="#E4E4E4"/>
<path fill-rule="evenodd" clip-rule="evenodd" d="M141.283 161.516C140.671 161.291 139.944 161.519 139.716 162.046C139.3 163.007 138.743 164.449 138.743 165.262C138.743 166.557 139.257 169.042 139.257 169.042C141.049 169.042 171.46 169.042 171.46 169.042C171.46 169.042 172.716 165.562 170.011 165.284C167.306 165.007 165.518 164.783 165.518 164.783L150.55 159.187C150.256 159.076 149.912 159.192 149.789 159.441L148.827 161.399C148.827 161.399 146.324 162.379 144.759 162.379C143.806 162.379 142.309 161.895 141.283 161.516Z" fill="#E4E4E4"/>
<path fill-rule="evenodd" clip-rule="evenodd" d="M161.45 106.996C161.45 119.718 154.246 149.394 154.242 152.195L138.743 152.206C138.743 152.206 142.145 112.486 141.156 112.058C140.166 111.631 100.589 115.373 88.7187 115.373C71.6026 115.373 64.5216 106.319 63.9472 89.5493H97.8541C104.758 90.1689 140.769 96.2607 154.142 98.3548C159.868 99.2517 161.45 103.492 161.45 106.996Z" fill="#2B44FF"/>
<path fill-rule="evenodd" clip-rule="evenodd" d="M143.516 34.9397L121.874 40.3885L127.4 48.109L144.227 39.8032C152.081 39.4109 155.793 38.7611 155.36 37.854C154.995 37.0891 154.128 36.9588 153.329 36.8387C152.707 36.7452 152.126 36.6579 151.857 36.2817C151.242 35.4227 153.397 33.1865 155.55 31.1378C157.704 29.0891 155.981 28.9936 154.94 29.1579C151.361 30.3766 147.553 32.3038 143.516 34.9397ZM138.174 83.6074L119.962 72.3903L115.936 80.7375L133.971 87.0103C139.072 92.0356 141.924 94.1302 142.527 93.295C143.037 92.5906 142.639 91.9312 142.272 91.3235C141.987 90.8504 141.72 90.4089 141.917 90.0023C142.365 89.0733 145.791 89.171 149.038 89.3807C152.284 89.59 151.338 88.3784 150.555 87.7799C147.241 86.1162 143.114 84.7251 138.174 83.6074Z" fill="#B28B67"/>
<path fill-rule="evenodd" clip-rule="evenodd" d="M91.6734 42.1824C101.591 57.6927 115.933 69.5827 136.725 81.9429L128.852 89.3879C105.637 82.1521 93.3852 77.7863 87.3684 63.1323C85.8582 59.454 84.8031 47.7297 83.8976 41.5608L91.6734 42.1824Z" fill="#2026A2"/>
<path fill-rule="evenodd" clip-rule="evenodd" d="M63.9472 93.8592H107.911C107.911 93.8592 92.9729 55.6489 92.6492 41.4089C92.6384 40.9249 91.5724 40.0721 91.1013 40.1838C85.929 41.4089 80.0322 39.2676 80.0322 39.2676C69.6094 53.3264 66.0055 70.6362 63.9472 93.8592Z" fill="#F2F2F2"/>
<path fill-rule="evenodd" clip-rule="evenodd" d="M91.0597 60.7168C97.926 85.42 97.6097 105.642 82.4502 105.642H59.009C55.286 84.6571 65.0708 55.5608 74.1422 40.8846C74.4888 40.3241 75.2259 39.2676 76.9633 39.2676H83.7748C83.7777 39.2752 83.7805 39.2827 83.784 39.2903C85.8331 39.3044 88.0907 39.3672 90.535 39.4353C103.119 39.7857 120.667 40.2742 140.411 34.9577L142.739 44.7141C124.918 54.3272 106.872 61.7742 91.0597 60.7168Z" fill="#1F28CF"/>
</svg>
